<svg xmlns="http://www.w3.org/2000/svg" fillRule="evenodd" strokeLinejoin="round" strokeMiterlimit="2" clipRule="evenodd" viewBox="0 0 500 150">
	<path fill="#F11926" fillRule="nonzero" d="M.06 0h.177v-.3c0-.041.023-.086.082-.086.063 0 .09.045.09.096V0h.177v-.306c.002-.039.026-.08.082-.08.063 0 .09.045.09.096V0h.177v-.338c0-.143-.106-.19-.2-.19-.056 0-.116.029-.17.094C.529-.503.454-.528.386-.528a.212.212 0 00-.147.069H.237v-.054H.06V0z" transform="translate(-171.905 -71.366) matrix(125 0 0 125 182.32 209.562)"></path>
	<path fill="#F11926" fillRule="nonzero" d="M.023-.256c0 .15.105.271.255.271.07 0 .13-.031.168-.073h.002V0h.175v-.513H.446v.049a.233.233 0 00-.168-.064c-.15 0-.255.122-.255.272zm.188 0c0-.071.053-.121.12-.121.066 0 .119.05.119.121 0 .07-.05.12-.119.12a.114.114 0 01-.12-.12z" transform="translate(-171.905 -71.366) matrix(125 0 0 125 305.445 209.562)"></path>
	<path fill="#F11926" fillRule="nonzero" d="M.09-.513H.016v.135H.09v.197c0 .091.034.196.175.196.073 0 .13-.032.13-.032L.351-.16S.33-.144.307-.144c-.028 0-.04-.023-.04-.071v-.163h.108v-.135H.267v-.191H.09v.191z" transform="translate(-171.905 -71.366) matrix(125 0 0 125 389.945 209.562)"></path>
	<path fill="#F11926" fillRule="nonzero" d="M.333-.383c.053 0 .086.024.086.024l.06-.121S.421-.528.307-.528c-.149 0-.284.122-.284.273 0 .15.136.27.284.27.114 0 .172-.046.172-.046l-.06-.123S.386-.13.333-.13a.124.124 0 01-.122-.127c0-.07.055-.126.122-.126z" transform="translate(-171.905 -71.366) matrix(125 0 0 125 439.32 209.562)"></path>
	<path fill="#F11926" fillRule="nonzero" d="M.06 0h.177v-.29c0-.051.052-.1.105-.1.057 0 .092.049.092.1V0h.177v-.338c0-.143-.131-.19-.225-.19a.212.212 0 00-.147.069H.237V-.86H.06V0z" transform="translate(-171.905 -71.366) matrix(125 0 0 125 500.695 209.562)"></path>
	<path fill="#F11926" fillRule="nonzero" d="M.023-.256c0 .15.105.271.255.271.07 0 .13-.031.168-.073h.002V0h.175v-.513H.446v.049a.233.233 0 00-.168-.064c-.15 0-.255.122-.255.272zm.188 0c0-.071.053-.121.12-.121.066 0 .119.05.119.121 0 .07-.05.12-.119.12a.114.114 0 01-.12-.12z" transform="translate(-171.905 -71.366) matrix(125 0 0 125 583.32 209.562)"></path>
	<g>
		<path fill="#F11926" fillRule="nonzero" stroke="#F11926" strokeWidth="26.35" d="M511.894 74.694C229.648 74.694 0 263.817 0 496.281c0 109.78 50.23 212.65 141.837 291.417L39.032 992.904a21.364 21.364 0 00-2.216 9.476c0 11.73 9.648 21.37 21.372 21.37 3.076 0 6.117-.66 8.913-1.94l274.588-127.787a610.078 610.078 0 00170.205 23.824c282.246 0 511.896-189.123 511.896-421.566 0-232.464-229.65-421.587-511.896-421.587zm0 800.496c-57.076 0-112.787-8.191-165.64-24.315a21.483 21.483 0 00-15.229 1.066L104.576 957.327l82.991-165.661c4.512-8.962 2.105-19.957-5.738-26.214C92.077 693.659 42.658 598.063 42.658 496.281c0-208.938 210.495-378.929 469.236-378.929S981.13 287.343 981.13 496.281c0 208.938-210.495 378.909-469.236 378.909z" transform="matrix(.0761 0 0 .0761 441.597 39.89) translate(-512 -512) matrix(.95452 0 0 .94301 26.347 9.616)"></path>
		<g fill="#F11926">
			<path fillRule="nonzero" d="M651.663 287.983c-40.547 0-88.324 20.966-118.44 76.102-30.116-55.136-77.893-76.102-118.439-76.102-67.592 0-137.508 56.436-137.508 150.881 0 135.694 233.466 307.051 243.406 314.282 7.462 5.415 17.629 5.406 25.082-.022 9.94-7.23 243.406-178.566 243.406-314.26 0-94.445-69.916-150.881-137.507-150.881zm-118.44 421.289c-69.532-53.194-213.289-181.509-213.289-270.408 0-67.741 48.225-108.223 94.85-108.223 46.326 0 82.841 36.878 97.707 98.646 2.307 9.541 10.916 16.317 20.732 16.317 9.816 0 18.425-6.776 20.732-16.317 14.845-61.768 51.381-98.646 97.708-98.646 46.625 0 94.849 40.482 94.849 108.223 0 88.899-143.757 217.235-213.289 270.408z" transform="matrix(.0761 0 0 .0761 441.597 39.89) translate(-512 -512) matrix(.95452 0 0 .94301 13.925 4.516)"></path>
			<path d="M651.663 274.198c-39.514 0-85.468 17.819-118.438 64.124-32.974-46.305-78.928-64.124-118.441-64.124-74.006 0-151.127 61.258-151.127 164.666 0 57.066 38.362 120.591 86.159 176.212C419 695.585 506.683 759.939 512.733 764.34l.007.005c12.195 8.849 28.802 8.836 40.977-.029 6.085-4.427 93.744-68.763 162.912-149.247 47.798-55.617 86.16-119.139 86.16-176.205 0-103.408-77.12-164.666-151.126-164.666zm0 13.785c-40.547 0-88.324 20.966-118.44 76.102-30.116-55.136-77.893-76.102-118.439-76.102-67.592 0-137.508 56.436-137.508 150.881 0 135.694 233.466 307.051 243.406 314.282 7.462 5.415 17.629 5.406 25.082-.022 9.94-7.23 243.406-178.566 243.406-314.26 0-94.445-69.916-150.881-137.507-150.881zm-118.44 421.289c-69.532-53.194-213.289-181.509-213.289-270.408 0-67.741 48.225-108.223 94.85-108.223 46.326 0 82.841 36.878 97.707 98.646 2.307 9.541 10.916 16.317 20.732 16.317 9.816 0 18.425-6.776 20.732-16.317 14.845-61.768 51.381-98.646 97.708-98.646 46.625 0 94.849 40.482 94.849 108.223 0 88.899-143.757 217.235-213.289 270.408zm-.001-17.363c-41.413-32.498-103.284-86.917-147.571-143.352-29.839-38.022-52.098-76.589-52.098-109.693 0-58.631 40.876-94.437 81.231-94.437 40.722 0 71.407 33.827 84.475 88.123l.002.007c3.785 15.657 17.861 26.833 33.962 26.833 16.101 0 30.177-11.176 33.961-26.826l.002-.009c13.051-54.304 43.755-88.128 84.477-88.128 40.354 0 81.23 35.806 81.23 94.437 0 33.104-22.259 71.675-52.098 109.7-44.287 56.437-106.156 110.857-147.569 143.345h-.004z" transform="matrix(.0761 0 0 .0761 441.597 39.89) translate(-512 -512) matrix(.95452 0 0 .94301 13.925 4.516)"></path>
		</g>
	</g>
</svg>
