<svg xmlns="http://www.w3.org/2000/svg" fillRule="evenodd" strokeLinejoin="round" strokeMiterlimit="2" clipRule="evenodd" viewBox="0 0 500 500">
	<path fill="#F11926" fillRule="nonzero" stroke="#F11926" strokeWidth="26.35" d="M511.894 74.694C229.648 74.694 0 263.817 0 496.281c0 109.78 50.23 212.65 141.837 291.417L39.032 992.904a21.364 21.364 0 00-2.216 9.476c0 11.73 9.648 21.37 21.372 21.37 3.076 0 6.117-.66 8.913-1.94l274.588-127.787a610.078 610.078 0 00170.205 23.824c282.246 0 511.896-189.123 511.896-421.566 0-232.464-229.65-421.587-511.896-421.587zm0 800.496c-57.076 0-112.787-8.191-165.64-24.315a21.483 21.483 0 00-15.229 1.066L104.576 957.327l82.991-165.661c4.512-8.962 2.105-19.957-5.738-26.214C92.077 693.659 42.658 598.063 42.658 496.281c0-208.938 210.495-378.929 469.236-378.929S981.13 287.343 981.13 496.281c0 208.938-210.495 378.909-469.236 378.909z" transform="matrix(.48573 0 0 .48573 248.057 249.137) translate(-512 -512) matrix(.95452 0 0 .94301 26.347 9.616)"></path>
	<g fill="#F11926">
		<path fillRule="nonzero" d="M651.663 287.983c-40.547 0-88.324 20.966-118.44 76.102-30.116-55.136-77.893-76.102-118.439-76.102-67.592 0-137.508 56.436-137.508 150.881 0 135.694 233.466 307.051 243.406 314.282 7.462 5.415 17.629 5.406 25.082-.022 9.94-7.23 243.406-178.566 243.406-314.26 0-94.445-69.916-150.881-137.507-150.881zm-118.44 421.289c-69.532-53.194-213.289-181.509-213.289-270.408 0-67.741 48.225-108.223 94.85-108.223 46.326 0 82.841 36.878 97.707 98.646 2.307 9.541 10.916 16.317 20.732 16.317 9.816 0 18.425-6.776 20.732-16.317 14.845-61.768 51.381-98.646 97.708-98.646 46.625 0 94.849 40.482 94.849 108.223 0 88.899-143.757 217.235-213.289 270.408z" transform="matrix(.48573 0 0 .48573 248.057 249.137) translate(-512 -512) matrix(.95452 0 0 .94301 13.925 4.516)"></path>
		<path d="M651.663 274.198c-39.514 0-85.47 17.82-118.44 64.127-32.97-46.307-78.926-64.127-118.439-64.127-74.006 0-151.127 61.258-151.127 164.666 0 57.066 38.362 120.591 86.159 176.212C419 695.585 506.683 759.939 512.733 764.34l.007.005c12.195 8.849 28.803 8.836 40.977-.029 6.087-4.429 93.745-68.764 162.912-149.247 47.798-55.617 86.16-119.139 86.16-176.205 0-103.408-77.12-164.666-151.126-164.666zm0 13.785c-40.547 0-88.324 20.966-118.44 76.102-30.116-55.136-77.893-76.102-118.439-76.102-67.592 0-137.508 56.436-137.508 150.881 0 135.694 233.466 307.051 243.406 314.282 7.462 5.415 17.629 5.406 25.082-.022 9.94-7.23 243.406-178.566 243.406-314.26 0-94.445-69.916-150.881-137.507-150.881zm-118.44 421.289c-69.532-53.194-213.289-181.509-213.289-270.408 0-67.741 48.225-108.223 94.85-108.223 46.326 0 82.841 36.878 97.707 98.646 2.307 9.541 10.916 16.317 20.732 16.317 9.816 0 18.425-6.776 20.732-16.317 14.845-61.768 51.381-98.646 97.708-98.646 46.625 0 94.849 40.482 94.849 108.223 0 88.899-143.757 217.235-213.289 270.408zm.001-17.362c-41.413-32.498-103.285-86.917-147.573-143.353-29.839-38.022-52.098-76.589-52.098-109.693 0-58.631 40.876-94.437 81.231-94.437 40.722 0 71.407 33.827 84.475 88.123l.002.007c3.785 15.657 17.861 26.833 33.962 26.833 16.101 0 30.177-11.176 33.961-26.826l.002-.009c13.051-54.304 43.755-88.128 84.477-88.128 40.354 0 81.23 35.806 81.23 94.437 0 33.104-22.259 71.675-52.098 109.7-44.287 56.438-106.158 110.859-147.57 143.346h-.001z" transform="matrix(.48573 0 0 .48573 248.057 249.137) translate(-512 -512) matrix(.95452 0 0 .94301 13.925 4.516)"></path>
	</g>
</svg>
