<?xml version="1.0" standalone="no"?>
<!DOCTYPE svg PUBLIC "-//W3C//DTD SVG 20010904//EN"
 "http://www.w3.org/TR/2001/REC-SVG-20010904/DTD/svg10.dtd">
<svg version="1.0" xmlns="http://www.w3.org/2000/svg"
 width="700.000000pt" height="700.000000pt" viewBox="0 0 700.000000 700.000000"
 preserveAspectRatio="xMidYMid meet">
<metadata>
Created by potrace 1.14, written by Peter Selinger 2001-2017
</metadata>
<g transform="translate(0.000000,700.000000) scale(0.100000,-0.100000)"
fill="#000000" stroke="none">
<path d="M3190 6519 c-501 -38 -985 -165 -1407 -369 -365 -176 -632 -361 -897
-619 -428 -419 -680 -891 -772 -1446 -26 -155 -26 -525 0 -680 91 -552 332
-1010 749 -1425 l125 -125 -329 -651 c-299 -593 -329 -656 -329 -700 1 -123
96 -217 220 -218 52 0 110 25 950 412 854 393 897 411 930 402 19 -6 107 -26
195 -45 987 -212 2024 -55 2854 432 703 412 1191 1036 1355 1733 140 590 41
1202 -279 1738 -579 970 -1781 1581 -3090 1571 -93 -1 -217 -5 -275 -10z m474
-429 c846 -43 1590 -345 2119 -860 214 -208 356 -399 472 -635 388 -792 208
-1680 -472 -2335 -468 -451 -1077 -729 -1833 -837 -181 -25 -719 -26 -910 0
-170 23 -398 69 -515 104 -173 51 -121 68 -843 -265 -348 -161 -637 -292 -643
-292 -6 0 12 42 39 93 27 50 129 250 226 443 162 323 176 356 176 405 0 83
-28 127 -138 220 -529 448 -812 1011 -812 1614 0 805 520 1553 1378 1984 424
213 902 336 1392 360 85 5 157 9 160 9 3 1 95 -3 204 -8z"/>
<path d="M2878 4960 c-168 -29 -346 -120 -508 -261 -31 -27 -60 -49 -63 -49
-4 0 -7 56 -7 125 l0 125 -410 0 -410 0 0 -1200 0 -1200 410 0 410 0 0 733 c0
626 2 741 15 792 47 179 166 275 351 283 223 10 375 -98 429 -305 13 -48 15
-172 15 -780 l0 -723 410 0 410 0 0 713 c0 409 4 737 10 771 13 79 59 175 108
224 21 21 66 52 98 68 55 27 67 29 180 29 l121 0 79 -40 c124 -63 188 -159
214 -317 6 -39 10 -333 10 -755 l0 -693 410 0 410 0 0 813 c0 486 -4 848 -10
902 -14 122 -35 194 -86 300 -75 157 -193 272 -360 352 -114 54 -216 81 -363
95 -309 31 -569 -77 -825 -343 -49 -49 -89 -89 -90 -87 -1 2 -23 36 -50 75
-104 156 -265 265 -477 322 -136 37 -317 50 -431 31z"/>
</g>
</svg>
